<?xml version="1.0" encoding="utf-8"?>
<!-- Generator: Adobe Illustrator 25.0.1, SVG Export Plug-In . SVG Version: 6.00 Build 0)  -->
<svg version="1.1" id="Layer_1" xmlns="http://www.w3.org/2000/svg" xmlns:xlink="http://www.w3.org/1999/xlink" x="0px" y="0px"
	 viewBox="0 0 512 512" style="enable-background:new 0 0 512 512;" xml:space="preserve">
<style type="text/css">
	.st0{fill:#E8CEC5;}
	.st1{fill:#F78484;}
</style>
<path d="M444.3,118.7c-16.6-33.5-41-62-70.4-82.5C339.5,12.2,299.8,0,256,0s-83.5,12.2-117.9,36.2c-29.4,20.5-53.8,49-70.4,82.5
	c-27.3,55-29.1,113.8-4.4,146.4c13.4,17.7,30.2,26.6,50,26.6c3.6,0,7.2-0.3,11-0.9c19.6-3,39.1-13.3,59.7-24.2
	c4.3-2.3,8.6-4.6,13-6.8c0.9,21.3-6.8,51.3-14.3,80.5c-13.8,53.5-28.1,108.7-1.3,143.2c14.8,19.1,39.3,28.5,74.8,28.5
	s59.9-9.3,74.8-28.5c26.7-34.5,12.5-89.8-1.3-143.2c-7.5-29.2-15.3-59.2-14.3-80.5c4.3,2.2,8.7,4.5,13,6.8
	c20.6,10.9,40.1,21.2,59.7,24.2c3.8,0.6,7.4,0.9,11,0.9c19.7,0,36.5-8.9,50-26.6C473.4,232.6,471.6,173.7,444.3,118.7L444.3,118.7z"
	/>
<path id="stem" class="st0" d="M300.4,347.8c11.4,44.3,24.4,94.5,6.7,117.4c-8.7,11.2-25.8,16.8-51,16.8s-42.4-5.7-51-16.8
	c-17.7-22.9-4.8-73.1,6.7-117.4c9.6-37.4,18.8-73,14-100.9c10.3-3.7,20.5-6.1,30.4-6.1s20.1,2.4,30.4,6.1
	C281.5,274.8,290.7,310.4,300.4,347.8z"/>
<path id="head" class="st1" d="M424.8,246.9c-18.2,23.9-38.1,16.7-82.7-6.8c-25.9-13.7-55.3-29.2-86.1-29.2s-60.1,15.5-86.1,29.2
	c-44.6,23.5-64.6,30.8-82.7,6.8c-17.4-22.9-14.3-71.2,7.4-114.9C126.3,68.2,186.6,30,256,30s129.7,38.2,161.4,102.1
	C439.1,175.7,442.2,224,424.8,246.9L424.8,246.9z"/>
</svg>
